<?xml version="1.0" encoding="UTF-8"?>
<svg width="60" height="60" viewBox="0 0 60 60" xmlns="http://www.w3.org/2000/svg">
  <style>
    .primary { fill: #4f46e5; }
    .secondary { fill: #7c3aed; }
    .accent { fill: #14b8a6; }
  </style>
  <g>
    <circle class="primary" cx="20" cy="30" r="15" fill-opacity="0.1"/>
    <circle class="secondary" cx="40" cy="30" r="15" fill-opacity="0.1"/>
    
    <path class="primary" d="M10 40C10 27 17 15 30 15C43 15 50 25 50 25" stroke="#4f46e5" stroke-width="1.5" fill="none"/>
    <path class="secondary" d="M10 20C10 33 17 45 30 45C43 45 50 35 50 35" stroke="#7c3aed" stroke-width="1.5" fill="none"/>
    
    <circle class="primary" cx="15" cy="22" r="2" fill-opacity="0.7"/>
    <circle class="primary" cx="25" cy="18" r="2" fill-opacity="0.7"/>
    <circle class="primary" cx="35" cy="20" r="2" fill-opacity="0.7"/>
    <circle class="primary" cx="45" cy="28" r="2" fill-opacity="0.7"/>
    
    <circle class="secondary" cx="15" cy="38" r="2" fill-opacity="0.7"/>
    <circle class="secondary" cx="25" cy="42" r="2" fill-opacity="0.7"/>
    <circle class="secondary" cx="35" cy="40" r="2" fill-opacity="0.7"/>
    <circle class="secondary" cx="45" cy="32" r="2" fill-opacity="0.7"/>
    
    <circle class="accent" cx="30" cy="30" r="4"/>
  </g>
</svg>