<?xml version="1.0" encoding="UTF-8"?>
<svg width="60" height="60" viewBox="0 0 60 60" xmlns="http://www.w3.org/2000/svg">
  <style>
    .primary { fill: #4f46e5; }
  </style>
  <g>
    <path class="primary" d="M40 45.9174C38.5 47.4174 32.5 48.9174 23 39.4174C13.5 29.9174 15 23.9174 16.5 22.4174L20.5 18.4174C21.5 17.4174 23 17.4174 24 18.4174L28 22.4174C29 23.4174 29 24.9174 28 25.9174L26.5 27.4174C26.5 27.4174 27 30.9174 30 33.9174C33 36.9174 36.5 37.4174 36.5 37.4174L38 35.9174C39 34.9174 40.5 34.9174 41.5 35.9174L45.5 39.9174C46.5 40.9174 46.5 42.4174 45.5 43.4174L40 45.9174Z" fill-opacity="0.8" stroke="#4f46e5" stroke-width="1.5" stroke-linecap="round" stroke-linejoin="round"/>
  </g>
</svg>