<?xml version="1.0" encoding="UTF-8"?>
<svg width="60" height="60" viewBox="0 0 60 60" xmlns="http://www.w3.org/2000/svg">
  <style>
    .primary { fill: #4f46e5; }
    .secondary { fill: #7c3aed; }
  </style>
  <g>
    <rect class="primary" x="15" y="10" width="30" height="10" rx="2" fill-opacity="0.3"/>
    <rect class="primary" x="15" y="25" width="30" height="10" rx="2" fill-opacity="0.3"/>
    <rect class="primary" x="15" y="40" width="30" height="10" rx="2" fill-opacity="0.3"/>
    
    <path class="secondary" d="M20 10V5M30 10V5M40 10V5" stroke="#7c3aed" stroke-width="1.5"/>
    <path class="secondary" d="M20 20V25M30 20V25M40 20V25" stroke="#7c3aed" stroke-width="1.5"/>
    <path class="secondary" d="M20 35V40M30 35V40M40 35V40" stroke="#7c3aed" stroke-width="1.5"/>
    <path class="secondary" d="M20 50V55M30 50V55M40 50V55" stroke="#7c3aed" stroke-width="1.5"/>
    
    <circle class="secondary" cx="20" cy="15" r="2"/>
    <circle class="secondary" cx="30" cy="15" r="2"/>
    <circle class="secondary" cx="40" cy="15" r="2"/>
    <circle class="secondary" cx="20" cy="30" r="2"/>
    <circle class="secondary" cx="30" cy="30" r="2"/>
    <circle class="secondary" cx="40" cy="30" r="2"/>
    <circle class="secondary" cx="20" cy="45" r="2"/>
    <circle class="secondary" cx="30" cy="45" r="2"/>
    <circle class="secondary" cx="40" cy="45" r="2"/>
  </g>
</svg>